<svg width="40" height="40" viewBox="0 0 40 40" fill="none" xmlns="http://www.w3.org/2000/svg">
<rect width="40" height="40" rx="20" fill="#BA0453"/>
<path d="M30.3799 11.8156C29.9827 10.8765 29.4144 10.0332 28.6906 9.30943C27.9668 8.58584 27.1237 8.01746 26.1844 7.62025C25.2117 7.20868 24.1789 7 23.1149 7C22.051 7 21.0182 7.20868 20.0452 7.62025C19.1061 8.01746 18.263 8.58584 17.5393 9.30943C16.8155 10.0332 16.2471 10.8765 15.8499 11.8156C15.4383 12.7885 15.2296 13.8211 15.2296 14.8853V15.2296H14.8853C13.8213 15.2296 12.7885 15.4383 11.8156 15.8497C10.8765 16.2469 10.0334 16.8155 9.30963 17.5391C8.58584 18.2628 8.01746 19.1061 7.62025 20.0452C7.20868 21.0182 7 22.0508 7 23.1147C7 24.1787 7.20868 25.2115 7.62025 26.1844C8.01746 27.1235 8.58584 27.9668 9.30963 28.6906C10.0334 29.4142 10.8765 29.9825 11.8156 30.3798C12.7885 30.7913 13.8213 31 14.8853 31H28.9751C29.9522 31 30.7698 30.3045 30.9589 29.3826C30.9657 29.3497 30.9715 29.3166 30.9767 29.2831C30.9818 29.2496 30.986 29.2159 30.9896 29.1817C30.9966 29.1139 31 29.0449 31 28.9751V14.8853C31 13.8211 30.7913 12.7885 30.3799 11.8156ZM14.8853 28.5461C11.8904 28.5461 9.45387 26.1096 9.45387 23.1147C9.45387 20.1198 11.8904 17.6835 14.8853 17.6835H15.2296V25.8682C15.2296 26.5669 15.3723 27.2448 15.6538 27.8832C15.7553 28.1134 15.873 28.3347 16.0067 28.5461H14.8853ZM23.4599 25.8682C23.4599 27.3449 22.1846 28.5461 20.617 28.5461H20.5264C18.9589 28.5461 17.6835 27.2707 17.6835 25.7032V17.6835H23.4599V25.8682ZM28.5461 28.5461H25.1369C25.2703 28.3347 25.3882 28.1134 25.4898 27.8832C25.7711 27.2448 25.9137 26.5669 25.9137 25.8682V17.6913C27.3834 17.7994 28.5461 19.0295 28.5461 20.5264V28.5461ZM28.5461 16.0552C27.7625 15.5546 26.8601 15.2707 25.9137 15.234V14.8402C25.9137 14.432 25.8497 14.029 25.7236 13.6424L25.7168 13.6446C25.3601 12.5483 24.3285 11.7537 23.1149 11.7537C21.6065 11.7537 20.3794 12.9808 20.3794 14.4893C20.3794 14.7458 20.4149 14.994 20.4813 15.2296H17.6835V14.8853C17.6835 11.8904 20.12 9.45387 23.1149 9.45387C26.1098 9.45387 28.5461 11.8904 28.5461 14.8853V16.0552Z" fill="white"/>
</svg>
